<svg viewBox="0 0 64 64" xmlns="http://www.w3.org/2000/svg" fill="none" role="img"><path d="M14 15V57L17 62L20 57L23 62L26 57L29 62L32 57L35 62L38 57L41 62L44 57L47 62L50 57V15" stroke="#4A2FBF" stroke-width="3" stroke-linejoin="round"/><rect x="7" y="4" width="50" height="12" rx="6" stroke="#4A2FBF" stroke-width="3"/><path d="M13 10H17" stroke="#4A2FBF" stroke-width="2" stroke-linecap="round"/><path d="M36.82 32Q36.18 32 35.8 31.67Q35.43 31.34 35.23 30.9H33.26V29.22H35.23Q35.43 28.78 35.8 28.45Q36.18 28.12 36.82 28.12H37.37L36.92 30.06L37.37 32ZM30.61 19Q31.96 19 32.82 19.46Q33.68 19.92 34.1 20.8Q34.51 21.68 34.51 22.91V30.9H32.07V22.99Q32.07 22.04 31.73 21.53Q31.38 21.02 30.55 21.02Q29.99 21.02 29.66 21.28Q29.33 21.53 29.2 21.97Q29.07 22.42 29.07 23.01V30.9H26.63V22.88Q26.63 21.73 27.04 20.86Q27.44 19.99 28.31 19.49Q29.18 19 30.61 19Z" fill="#4A2FBF"/><path d="M21 35H43M21 40.5H35" stroke="#4A2FBF" stroke-width="2.2" stroke-linecap="round"/><circle cx="32" cy="50" r="4.6" stroke="#4A2FBF" stroke-width="1.8"/><path d="M29.6 50.1l1.7 1.8 3.2-3.6" stroke="#4A2FBF" stroke-width="1.8" stroke-linecap="round" stroke-linejoin="round"/></svg>
